<svg width="14" height="9" viewBox="0 0 14 9" fill="none" xmlns="http://www.w3.org/2000/svg">
<path d="M7 0.359375C7.26562 0.359375 7.50781 0.460938 7.70312 0.671875L13.6562 6.75781C13.8281 6.92969 13.9141 7.14062 13.9141 7.39844C13.9141 7.90625 13.5156 8.30469 13.0156 8.30469C12.7656 8.30469 12.5312 8.20312 12.3594 8.03125L7 2.53906L1.64062 8.03125C1.46094 8.20312 1.23438 8.30469 0.984375 8.30469C0.476562 8.30469 0.078125 7.90625 0.078125 7.39844C0.078125 7.14844 0.171875 6.92969 0.34375 6.75781L6.29688 0.671875C6.5 0.460938 6.73438 0.359375 7 0.359375Z" fill="white"/>
</svg>
